<svg xmlns="http://www.w3.org/2000/svg" xmlns:xlink="http://www.w3.org/1999/xlink" width="32" height="32" viewBox="0 0 32 32">
  <defs>
    <clipPath id="clip-path">
      <rect id="Rectangle_1710" data-name="Rectangle 1710" width="32" height="32" transform="translate(-18547 -8759)" fill="#fff" stroke="#707070" stroke-width="1"/>
    </clipPath>
  </defs>
  <g id="AI" transform="translate(18546.999 8759)" clip-path="url(#clip-path)">
    <g id="artificial-intelligence" transform="translate(-18547 -8759)">
      <circle id="Ellipse_513" data-name="Ellipse 513" cx="7.742" cy="7.742" r="7.742" transform="translate(8.258 5.161)" fill="#ffcb57"/>
      <path id="Path_6168" data-name="Path 6168" d="M30.968,15.579V11.259a1.542,1.542,0,1,0-1.021-2.91L27.634,5.457a1.526,1.526,0,0,0,.237-.812,1.546,1.546,0,0,0-2.655-1.079L21.147,1.688a1.4,1.4,0,0,0,.014-.14,1.545,1.545,0,0,0-3-.516H12.292a1.545,1.545,0,0,0-3,.516,1.5,1.5,0,0,0,.019.187L6.75,3.016A1.543,1.543,0,0,0,4.366,4.942L2.053,7.833a1.529,1.529,0,0,0-.5-.091,1.545,1.545,0,0,0-.516,3v3.287a1.544,1.544,0,1,0,1.853,2.22l2.818.513a1.547,1.547,0,0,0,1.523,1.3c.021,0,.04-.005.061-.006l.985,2.462a1.544,1.544,0,1,0,2.277,2.053l4.429,1.266A1.543,1.543,0,0,0,16,25.195V29a1.548,1.548,0,1,0,1.032,0v-3.8a1.535,1.535,0,0,0,.433-2.668l.616-1.849,4.631,1.544a1.544,1.544,0,0,0,1.029,1.424V29a1.548,1.548,0,1,0,1.032,0V23.647a1.524,1.524,0,0,0,.932-1.988l3.96-3.3a1.534,1.534,0,0,0,.786.221,1.545,1.545,0,0,0,.516-3Zm-22.2.908a1.5,1.5,0,0,0-.019-.181l4.234-2.2L14.3,18.329ZM7.619,15.024,6.9,9.539l3.537-.177a1.547,1.547,0,0,0,1.369.954l.867,2.793-4.4,2.279A1.552,1.552,0,0,0,7.619,15.024ZM2.979,8.7a1.511,1.511,0,0,0-.119-.225L5.173,5.586a1.566,1.566,0,0,0,.181.056l.381,2.922Zm3.4-3.2a1.544,1.544,0,0,0,.849-1.374,1.5,1.5,0,0,0-.019-.187l2.56-1.28a1.539,1.539,0,0,0,1.929.174L14.9,5.24l-2.32,2.166a1.527,1.527,0,0,0-2.186.926L6.77,8.512ZM18.2,2.166,15.668,4.525l-3.281-2.46h5.773C18.172,2.1,18.181,2.133,18.2,2.166ZM19.634,9.5l-4.153,2.154L13.264,9.438a1.512,1.512,0,0,0,.025-1.281L15.74,5.869l3.95,2.963a1.532,1.532,0,0,0-.077.458A1.573,1.573,0,0,0,19.634,9.5Zm-7.247-.727a.516.516,0,1,1-.516-.516A.517.517,0,0,1,12.387,8.774Zm2.133,3.379-.913.473-.624-2.01Zm-.6,1.475,1.368-.709L17.7,15.337a1.519,1.519,0,0,0,.445,1.878l-.719,2.158L15.5,18.73ZM19.1,16.516A.516.516,0,1,1,19.613,16,.517.517,0,0,1,19.1,16.516Zm0-2.064a1.523,1.523,0,0,0-.663.155L16.247,12.42l3.861-2a1.519,1.519,0,0,0,1.84.2l2.35,1.958L20.125,14.85A1.539,1.539,0,0,0,19.1,14.451ZM25.588,6a1.468,1.468,0,0,0,1.238.1l2.313,2.891a1.535,1.535,0,0,0-.236.813,1.51,1.51,0,0,0,.025.243l-3.656,1.994L22.609,9.824A1.5,1.5,0,0,0,22.591,8.7Zm4.077,9.705-3.541-2.951,3.3-1.8a1.532,1.532,0,0,0,.513.3v4.319A1.553,1.553,0,0,0,29.666,15.705ZM21.677,9.29a.516.516,0,1,1-.516-.516A.517.517,0,0,1,21.677,9.29Zm3.472,4,3.7,3.082-8.013-.729Zm5.818-3.48a.516.516,0,1,1-.516-.516A.517.517,0,0,1,30.968,9.806ZM26.322,4.129a.516.516,0,1,1-.516.516A.517.517,0,0,1,26.322,4.129Zm-1.534.376c0,.047-.014.092-.014.14a1.541,1.541,0,0,0,.119.593l-3,2.7a1.522,1.522,0,0,0-.733-.194A1.539,1.539,0,0,0,20.3,8l-3.8-2.848,2.4-2.237a1.523,1.523,0,0,0,.709.18,1.542,1.542,0,0,0,1.107-.469ZM19.613,1.032a.516.516,0,1,1-.516.516A.517.517,0,0,1,19.613,1.032Zm-8.774,0a.516.516,0,1,1-.516.516A.517.517,0,0,1,10.839,1.032ZM5.678,3.613a.516.516,0,1,1-.516.516A.517.517,0,0,1,5.678,3.613ZM1.549,8.774a.516.516,0,1,1-.516.516A.517.517,0,0,1,1.549,8.774Zm0,7.226a.516.516,0,1,1,.516-.516A.517.517,0,0,1,1.549,16Zm.516-1.97V10.743a1.545,1.545,0,0,0,.96-1.011L5.87,9.59l.719,5.517a1.549,1.549,0,0,0-.7.64l-2.817-.511A1.545,1.545,0,0,0,2.065,14.03ZM6.71,16.516a.516.516,0,1,1,.516.516A.517.517,0,0,1,6.71,16.516Zm1.535,1.157a1.523,1.523,0,0,0,.2-.208l6.232,2.077.92,2.964a1.555,1.555,0,0,0-.334.339L10.829,21.58A1.546,1.546,0,0,0,9.29,20.129c-.021,0-.04.005-.06.006ZM9.29,22.193a.516.516,0,1,1,.516-.516A.517.517,0,0,1,9.29,22.193Zm7.226,8.774a.516.516,0,1,1,.516-.516A.517.517,0,0,1,16.516,30.967Zm0-6.71a.516.516,0,1,1,.516-.516A.517.517,0,0,1,16.516,24.258Zm.018-2.2-.656-2.113,1.224.408Zm2.592-4.512a1.545,1.545,0,0,0,1.374-.9l8.457.769c.013.052.029.1.047.152l-3.96,3.3a1.52,1.52,0,0,0-2,.378L18.408,19.7Zm5.132,13.422a.516.516,0,1,1,.516-.516A.517.517,0,0,1,24.258,30.967Zm0-8.258a.516.516,0,1,1,.516-.516A.517.517,0,0,1,24.258,22.709Zm6.193-5.161a.516.516,0,1,1,.516-.516A.517.517,0,0,1,30.451,17.548Z" fill="#3f3a34"/>
      <g id="Group_5319" data-name="Group 5319">
        <rect id="Rectangle_1711" data-name="Rectangle 1711" width="1.032" height="1.032" transform="translate(1.032)" fill="#e56565"/>
        <rect id="Rectangle_1712" data-name="Rectangle 1712" width="1.032" height="1.032" transform="translate(1.032 2.064)" fill="#e56565"/>
        <rect id="Rectangle_1713" data-name="Rectangle 1713" width="1.032" height="1.032" transform="translate(2.065 1.032)" fill="#e56565"/>
        <rect id="Rectangle_1714" data-name="Rectangle 1714" width="1.032" height="1.032" transform="translate(0 1.032)" fill="#e56565"/>
        <rect id="Rectangle_1715" data-name="Rectangle 1715" width="1.032" height="1.032" transform="translate(26.839 23.742)" fill="#e56565"/>
        <rect id="Rectangle_1716" data-name="Rectangle 1716" width="1.032" height="1.032" transform="translate(26.839 25.806)" fill="#e56565"/>
        <rect id="Rectangle_1717" data-name="Rectangle 1717" width="1.032" height="1.032" transform="translate(27.871 24.774)" fill="#e56565"/>
        <rect id="Rectangle_1718" data-name="Rectangle 1718" width="1.032" height="1.032" transform="translate(25.806 24.774)" fill="#e56565"/>
        <rect id="Rectangle_1719" data-name="Rectangle 1719" width="1.032" height="1.032" transform="translate(29.935 2.064)" fill="#e56565"/>
        <rect id="Rectangle_1720" data-name="Rectangle 1720" width="1.032" height="1.032" transform="translate(29.935 4.129)" fill="#e56565"/>
        <rect id="Rectangle_1721" data-name="Rectangle 1721" width="1.032" height="1.032" transform="translate(30.968 3.097)" fill="#e56565"/>
        <rect id="Rectangle_1722" data-name="Rectangle 1722" width="1.032" height="1.032" transform="translate(28.903 3.097)" fill="#e56565"/>
        <rect id="Rectangle_1723" data-name="Rectangle 1723" width="1.032" height="1.032" transform="translate(6.194 24.774)" fill="#e56565"/>
        <rect id="Rectangle_1724" data-name="Rectangle 1724" width="1.032" height="1.032" transform="translate(6.194 26.838)" fill="#e56565"/>
        <rect id="Rectangle_1725" data-name="Rectangle 1725" width="1.032" height="1.032" transform="translate(7.226 25.806)" fill="#e56565"/>
        <rect id="Rectangle_1726" data-name="Rectangle 1726" width="1.032" height="1.032" transform="translate(5.161 25.806)" fill="#e56565"/>
        <rect id="Rectangle_1727" data-name="Rectangle 1727" width="1.032" height="1.032" transform="translate(3.097 19.096)" fill="#e56565"/>
        <rect id="Rectangle_1728" data-name="Rectangle 1728" width="1.032" height="1.032" transform="translate(3.097 21.161)" fill="#e56565"/>
        <rect id="Rectangle_1729" data-name="Rectangle 1729" width="1.032" height="1.032" transform="translate(4.129 20.129)" fill="#e56565"/>
        <rect id="Rectangle_1730" data-name="Rectangle 1730" width="1.032" height="1.032" transform="translate(2.065 20.129)" fill="#e56565"/>
      </g>
    </g>
  </g>
</svg>
