<svg id="Data_Engineer" data-name="Data Engineer" xmlns="http://www.w3.org/2000/svg" width="32" height="32" viewBox="0 0 32 32">
  <path id="Path_5871" data-name="Path 5871" d="M0,0H32V32H0Z" fill="none"/>
  <path id="Path_5872" data-name="Path 5872" d="M25.756,3H5.844A2.853,2.853,0,0,0,3,5.844V25.756A2.853,2.853,0,0,0,5.844,28.6H25.756A2.853,2.853,0,0,0,28.6,25.756V5.844A2.853,2.853,0,0,0,25.756,3ZM10.111,22.911a1.426,1.426,0,0,1-1.422-1.422V14.378a1.422,1.422,0,0,1,2.844,0v7.111A1.426,1.426,0,0,1,10.111,22.911Zm5.689,0a1.426,1.426,0,0,1-1.422-1.422V10.111a1.422,1.422,0,0,1,2.844,0V21.489A1.426,1.426,0,0,1,15.8,22.911Zm5.689,0a1.426,1.426,0,0,1-1.422-1.422V18.644a1.422,1.422,0,1,1,2.844,0v2.844A1.426,1.426,0,0,1,21.489,22.911Z" transform="translate(0.2 0.2)" fill="#888"/>
</svg>
