<svg id="Typescript" xmlns="http://www.w3.org/2000/svg" width="32" height="32" viewBox="0 0 32 32">
  <rect id="Rectangle_1685" data-name="Rectangle 1685" width="32" height="32" rx="16" fill="#3178c6"/>
  <rect id="Rectangle_1686" data-name="Rectangle 1686" width="32" height="32" rx="4" fill="#3178c6"/>
  <path id="Path_5980" data-name="Path 5980" d="M130.434,248.589v3.129a6.631,6.631,0,0,0,1.8.587,11.889,11.889,0,0,0,2.2.2,10.261,10.261,0,0,0,2.137-.215,5.239,5.239,0,0,0,1.775-.709,3.612,3.612,0,0,0,1.208-1.291,4.547,4.547,0,0,0,.191-3.461,3.485,3.485,0,0,0-.734-1.139,5.373,5.373,0,0,0-1.149-.9,12.317,12.317,0,0,0-1.511-.748q-.616-.254-1.105-.494a5.613,5.613,0,0,1-.831-.489,2.131,2.131,0,0,1-.528-.528,1.111,1.111,0,0,1-.186-.631,1.054,1.054,0,0,1,.166-.582,1.436,1.436,0,0,1,.469-.445,2.511,2.511,0,0,1,.743-.288,4.313,4.313,0,0,1,.978-.1,6.2,6.2,0,0,1,.827.059,6.537,6.537,0,0,1,.876.181,6.1,6.1,0,0,1,.856.308,4.715,4.715,0,0,1,.768.43v-2.923a7.639,7.639,0,0,0-1.56-.406,12.713,12.713,0,0,0-1.942-.132,9.027,9.027,0,0,0-2.113.24,5.374,5.374,0,0,0-1.756.748,3.738,3.738,0,0,0-1.2,1.3,3.8,3.8,0,0,0-.44,1.882,3.649,3.649,0,0,0,.807,2.386,6.14,6.14,0,0,0,2.45,1.672q.646.264,1.2.518a6.7,6.7,0,0,1,.963.528,2.528,2.528,0,0,1,.641.6,1.215,1.215,0,0,1,.235.733,1.122,1.122,0,0,1-.147.562,1.3,1.3,0,0,1-.445.45,2.439,2.439,0,0,1-.743.3,4.468,4.468,0,0,1-1.042.108,5.944,5.944,0,0,1-2.015-.357,6.013,6.013,0,0,1-1.843-1.088Zm-5.26-7.709h4.014v-2.568H118v2.568h3.994v11.432h3.18Z" transform="translate(-110.625 -223.125)" fill="#fff" fill-rule="evenodd"/>
</svg>
