<svg xmlns="http://www.w3.org/2000/svg" xmlns:xlink="http://www.w3.org/1999/xlink" viewBox="0 0 1920 1080"><style>.B{fill:#1e1e1e}.C{fill:#ffc500}.D{fill:none}.E{stroke-linecap:round}.F{fill:#f4f4f4}.G{stroke:#1e1e1e}.H{stroke-linejoin:round}.I{fill:#e8e8e8}.J{fill:#c56630}.K{stroke:#de1250}.L{stroke-miterlimit:10}.M{stroke-width:4.174}.N{fill:#c154fd}.O{fill:#d0d0d0}</style><defs><linearGradient id="A" x1="636.45" y1="477.49" x2="781.17" y2="477.49" gradientUnits="userSpaceOnUse"><stop offset="0" stop-color="#1c48bf"/><stop offset=".12" stop-color="#2747c3"/><stop offset=".34" stop-color="#4345ce"/><stop offset=".62" stop-color="#7142e1"/><stop offset=".96" stop-color="#b13efa"/><stop offset="1" stop-color="#b93dfd"/></linearGradient><linearGradient id="B" x1="812.77" y1="172.98" x2="957.49" y2="172.98" xlink:href="#A"/><linearGradient id="C" x1="989.09" y1="274.49" x2="1133.81" y2="274.49" xlink:href="#A"/><linearGradient id="D" x1="1165.41" y1="375.99" x2="1310.13" y2="375.99" xlink:href="#A"/><linearGradient id="E" x1="913.77" y1="438.61" x2="913.77" y2="550.87" gradientUnits="userSpaceOnUse"><stop offset=".03" stop-color="#ffc401"/><stop offset=".16" stop-color="#ffbf04"/><stop offset=".32" stop-color="#ffaf0c"/><stop offset=".5" stop-color="#fe9619"/><stop offset=".7" stop-color="#fe722b"/><stop offset=".9" stop-color="#fd4543"/><stop offset="1" stop-color="#fd2b50"/></linearGradient><path id="F" d="M849.18 886.9h-.41a4.68 4.68 0 01-4.68-4.68V637.91h9.77v244.31a4.68 4.68 0 01-4.68 4.68z"/></defs><rect x="636.45" y="143.09" width="144.72" height="59.79" rx="10.84" class="N"/><rect x="636.45" y="244.59" width="144.72" height="59.79" rx="10.84" class="O"/><rect x="636.45" y="346.09" width="144.72" height="59.79" rx="10.84" class="C"/><rect x="636.45" y="447.6" width="144.72" height="59.79" rx="10.84" fill="url(#A)"/><rect x="812.77" y="143.09" width="144.72" height="59.79" rx="10.84" fill="url(#B)"/><rect x="812.77" y="244.59" width="144.72" height="59.79" rx="10.84" class="N"/><rect x="812.77" y="346.09" width="144.72" height="59.79" rx="10.84" class="O"/><rect x="812.77" y="447.6" width="144.72" height="59.79" rx="10.84" class="B"/><rect x="989.09" y="143.09" width="144.72" height="59.79" rx="10.84" class="C"/><rect x="989.09" y="244.59" width="144.72" height="59.79" rx="10.84" fill="url(#C)"/><rect x="989.09" y="346.09" width="144.72" height="59.79" rx="10.84" class="N"/><g class="O"><rect x="989.09" y="447.6" width="144.72" height="59.79" rx="10.84"/><rect x="1165.41" y="143.09" width="144.72" height="59.79" rx="10.84"/></g><rect x="1165.41" y="244.59" width="144.72" height="59.79" rx="10.84" class="C"/><rect x="1165.41" y="346.09" width="144.72" height="59.79" rx="10.84" fill="url(#D)"/><rect x="1165.41" y="447.6" width="144.72" height="59.79" rx="10.84" class="N"/><path d="M708.81 266.29a8.11 8.11 0 013.74.91l6.36-6.37a17 17 0 106.88 13.66 17.15 17.15 0 00-.46-3.95h-18.87v7.89H716a8.19 8.19 0 11-7.18-12.14zm172.75 93.28a9.32 9.32 0 00-3.37 7.18v4.87h-3.9v7.87h3.9v15.08h7.87v-15.08h4.72v-7.87h-4.72v-4.87a1.46 1.46 0 011.73-1.44l5.08.94 1.43-7.74-5.07-.94a9.28 9.28 0 00-7.67 2zm3.71-98.06a9 9 0 005.56-4.24l.83-1.43a.55.55 0 00-.47-.82 9.11 9.11 0 00-8.24 5.23l-.5 1.08a.54.54 0 00.63.76zm3.65 13.89a9.31 9.31 0 013.81-7.52 13.11 13.11 0 101.57 16 9.33 9.33 0 01-5.38-8.48zm17.56-88.5c-20.48 11.52-39.91-.94-40.1-1.07a1 1 0 10-1.1 1.67 45.59 45.59 0 0022.72 6.28 39.15 39.15 0 0019.46-5.14 1.003 1.003 0 00-1-1.74zm2.62-3.45l-4.16-.23a1 1 0 00-1.06.95 1 1 0 001 1.05l4.16.23a.78.78 0 01.71 1l-1.31 4.74a1 1 0 00.69 1.23 1.26 1.26 0 00.27 0 1 1 0 001-.74l1.31-4.74a2.77 2.77 0 00-2.52-3.51zm-26.22-17.4a20.09 20.09 0 00-5.64 1.61 10.54 10.54 0 00-3.9 3 7.42 7.42 0 00-1.46 4.69 7.34 7.34 0 002.55 5.95 10.66 10.66 0 007.07 2.15 9.77 9.77 0 005.1-1.18 9.48 9.48 0 003.17-3.16 16.69 16.69 0 00.14 2.19 3.2 3.2 0 00.38 1.32h8.16a7.77 7.77 0 01-.47-1.7 12.51 12.51 0 01-.18-2.23v-14.23a11.47 11.47 0 00-.91-4.81 8.55 8.55 0 00-2.55-3.28 10.45 10.45 0 00-3.84-1.88 18.33 18.33 0 00-4.72-.59 19 19 0 00-4.66.56 13.72 13.72 0 00-3.9 1.61 8.94 8.94 0 00-2.76 2.64 7.92 7.92 0 00-1.29 3.58l8 1.23a3.25 3.25 0 011.06-2.34 4.45 4.45 0 013.28-1.06 3.94 3.94 0 013 1 3.62 3.62 0 011 2.61v1.82a44.78 44.78 0 00-6.63.5zm6.65 6.74a3.77 3.77 0 01-.5 2 4.61 4.61 0 01-1.32 1.43 6.33 6.33 0 01-1.84.91 7 7 0 01-2.14.32 5 5 0 01-2.58-.61 2.05 2.05 0 01-1.06-1.91 3.12 3.12 0 01.67-2.05 4.65 4.65 0 011.91-1.32 10.75 10.75 0 013-.67 38.13 38.13 0 013.87-.18zm332.96 85.68h14.35v14.35h-14.35zm16.21 4.13h14.35v14.35h-14.35zm-16.21 11.77h14.35v14.35h-14.35zm16.21 4.13h14.35v14.35h-14.35zm-22.37 86.98l.86 1.36a32.65 32.65 0 0134.79 0l.85-1.36a34.23 34.23 0 00-36.5 0zm18.25.57L1230 363a31.9 31.9 0 00-12.36 4.57l1.08 1.71a4.75 4.75 0 005.88 1.87 25.52 25.52 0 014.68-1.49l4.62 21.58a.73.73 0 001.43 0l4.61-21.58a25.52 25.52 0 014.68 1.49 4.75 4.75 0 005.88-1.87l1.08-1.71a31.84 31.84 0 00-12.36-4.57zm4.47-183.4a6.6 6.6 0 004 1.39h4a1.32 1.32 0 00.81-2.36l-20.58-15.89a6.61 6.61 0 00-4-1.38h-4a1.31 1.31 0 00-.8 2.35zm26.95-25.26a122 122 0 00-31.38 11.8l3.87 3.13a112.48 112.48 0 0128-13.2.9.9 0 00-.49-1.73zM1217.54 184h6.12a1.2 1.2 0 00.87-.38 61.55 61.55 0 015.81-5.36l-4.42-3.71a87.85 87.85 0 00-9.2 7.37 1.2 1.2 0 00.82 2.08zm-141.1 190.85a16.18 16.18 0 100 2.28h-12v3h-8.31v-8.3h8.31v3zm150.1 118.61a3.82 3.82 0 107.64 0v-8.57l-7.64-20.6zm16.78-36.55a3.82 3.82 0 00-3.82 3.82v9.67l7.64 21.87v-31.54a3.82 3.82 0 00-3.82-3.82zM1239.5 474l-5.32-14.57a3.61 3.61 0 10-6.81 2.38l6.81 18.85 5.88 15.13a3.35 3.35 0 006.35-2.11zm-189.9-284.83h21.4a5.51 5.51 0 005.5-5.5V162.3a5.5 5.5 0 00-5.5-5.5h-21.4a5.5 5.5 0 00-5.5 5.5v21.37a5.51 5.51 0 005.5 5.5zm-2.92-26.87a2.92 2.92 0 012.92-2.92h21.4a2.92 2.92 0 012.92 2.92v21.37a2.92 2.92 0 01-2.92 2.92h-21.4a2.92 2.92 0 01-2.92-2.92zm13.6 17.87a7.19 7.19 0 10-7.18-7.19 7.2 7.2 0 007.18 7.19zm0-11.8a4.61 4.61 0 11-4.6 4.61 4.62 4.62 0 014.6-4.61zM716.66 461.11h-21.73a5.6 5.6 0 00-5.59 5.6v21.72a5.6 5.6 0 005.59 5.6h21.73a5.6 5.6 0 005.59-5.6v-21.72a5.6 5.6 0 00-5.59-5.6zm3 27.32a3 3 0 01-3 3h-21.73a3 3 0 01-3-3v-21.72a3 3 0 013-3h21.73a3 3 0 013 3zm-13.86-18.17a7.31 7.31 0 107.3 7.31 7.32 7.32 0 00-7.3-7.31zm0 12a4.68 4.68 0 114.68-4.68 4.69 4.69 0 01-4.68 4.67zm-10.54-122.07l-12.16 7.94 12.16 7.86 12.17-7.86-12.17-7.94zm24.34 0l-12.17 7.94 12.17 7.86 12.16-7.86-12.16-7.94zm-36.5 23.74l12.16 7.86 12.17-7.86-12.17-7.94-12.16 7.94zm36.5 7.86l12.16-7.86-12.16-7.94-12.17 7.94 12.17 7.86zm-33.55-215.48l6.92.75-3.49 2.11a3.13 3.13 0 002.47 5.7l3.57-1-5.91 5.91a1.93 1.93 0 001.36 3.3h12a23.69 23.69 0 0023.44-20.27l3.75-2.42a1.16 1.16 0 00-.63-2.14h-2.87l4.3-3.52a1.17 1.17 0 00-.73-2.07h-5.1a10.94 10.94 0 00-20.29 4.48 2.63 2.63 0 01-1 1.83 2.57 2.57 0 01-3.15 0l-10.49-8.23a2.91 2.91 0 00-4.09.49l-.14.19a2.91 2.91 0 00.49 4.09l6.08 4.77-6.28.18a2.9 2.9 0 00-2.83 2.81v.06a2.92 2.92 0 002.62 2.98zm397.04 291.17H1078a10.93 10.93 0 00-20.28 4.48 2.61 2.61 0 01-1 1.83 2.57 2.57 0 01-3.14 0l-10.49-8.23a2.9 2.9 0 00-4.09.49l-.15.19a2.91 2.91 0 00.49 4.08l6.09 4.78-6.28.17a2.92 2.92 0 00-2.83 2.82v.06a2.92 2.92 0 002.6 3l6.92.75-3.49 2.1a3.14 3.14 0 002.47 5.71l3.57-1-5.92 5.92a1.93 1.93 0 001.37 3.3h12a23.7 23.7 0 0023.45-20.27l3.75-2.42a1.16 1.16 0 00-.63-2.14h-2.87l4.3-3.53a1.16 1.16 0 00-.75-2.09z"/><path d="M668.75 541.1l156.93 71.67h503.45l-156.92-71.67s-504.81-1.36-503.46 0z" class="I"/><ellipse cx="1137.56" cy="560.73" rx="23.54" ry="6.75" opacity=".3" class="B"/><path d="M567.91 785l156.93 71.68h503.45l100.84-30.09-660.38-71.7S566.56 783.61 567.91 785z" fill="#ededed"/><path d="M1329.13 826.56H825.68l-156.93-71.67V541.1l156.93 71.67h503.45v213.79z" fill="#d4d4d4"/><path d="M1329.13 826.56c.92 0 0-213.79 0-213.79H825.68v213.79z" class="F"/><path d="M797.85 539.47s-4.48-8.69 8.14-23.35c11-12.76 28.56-30.66 32.93-35.08l1-1 36.25 19.55-29 36.25c0 .14-13.17 12.48-39 8a13.32 13.32 0 01-10.32-4.37z" class="J"/><path d="M1007.85 550.87s6.24-54.43 3.39-70.58-15.61-24-23.62-27.29-23.48-9.23-23.48-9.23l-52.81-5.16-18.59.82c-16.78.71-25.25 9.09-36.11 19.95l-40.8 41.33a1 1 0 00.08 1.43c14.42 11.54 43 18.6 43 18.6l-3.4 4.34 50.77 14.39z" fill="url(#E)"/><path d="M861.21 520.17c2.5-3.66 12.23-17.76 21.76-29a.2.2 0 01.33.22l-18.39 36.41-9.37-2.72 3.33-4.36.64.15a1.58 1.58 0 001.7-.7z" class="B"/><path d="M922.47 407.12s.56 17.3.13 20.5c-.54 4.07-1.63 9.09-11.67 11 0 0 6.18 19.72 35.7 18.73 6.11-.2 15.47-4.88 17.51-13.57l-7.57-5.25a4.39 4.39 0 01-1.76-3.15c-.15-1.59-.31-4.16-.31-7.75 0 0 .79-19-9.93-27.68a14.67 14.67 0 00-18.4 0c-2.17 1.77-3.81 4.11-3.7 7.17z" class="J"/><path d="M938.62 420.15s.58 7.49 15.88 14v-9.25z" class="B"/><path d="M918.97 577.17l-86.22-39.09v5.11l84.03 38.36" fill="#626262"/><path d="M832.75 538.08h103.09v39.4l-17.31-.34-85.78-39.06z" fill="#989898"/><path d="M966.75 377.9s1.51 15.76 1.46 26.1c-.05 11.36-.4 19.54-8.14 22.8-8.41 3.54-22.81-4.07-33.94-15.75s-14.12-27.42-4.34-41 29.55-8.11 34.75-3.26c4.07 3.81 9.12 6.76 10.21 11.11z" class="J"/><path d="M922.19 397.34s13.71 1 4.48-17c0 0 7.33-1.9 5.71-9.78 0 0 25 19.82 38 7.06 0 0 8.28-8.55-3.12-14.8 0 0 2.31-4.88-.81-8.28s-6.52-1.22-14.8-.13-30.95-4.35-41.13 10.18c-9.85 14.05-5.43 28.1 4.48 41.95 0 0 7.47 10.31 7.74 11.13z" class="B"/><path d="M927.22 397.48s-5.7-12.22-12-7.87c-5.83 4.05 3 17.1 8.69 15.47s3.31-7.6 3.31-7.6z" class="J"/><path d="M1116 572.81l-15.18 4.49a4.15 4.15 0 01-2.94-.21l-34.21-15.73a4.19 4.19 0 01-2.43-3.8v-.24L1119 569v.36a4.19 4.19 0 01-3 3.45z" class="B"/><path d="M1081.74 551.84L1119 569l-19.7 5.83-38.07-17.51 18.88-5.59a2.24 2.24 0 011.63.11z" fill="#757575"/><path d="M921.79 405.52a13.08 13.08 0 003.66 0" class="D E G H"/><g class="J"><path d="M904.68 551a40.62 40.62 0 01-29.93-2.14v-19s18.12.21 24.23-.51 18.23-1.93 26.78 6.93l5.19 5.9-5.4 14.76L915 550l8.65 12.63-1.65 4.57z"/><path d="M797.37 538.18s-5.93-25.56 37.88-16.9c9.3 1.84 37.06 8.15 37.06 8.15s12 .81 11.81 11c-.21 11.81-18.33 10.39-18.33 10.39s-38.89 1.83-51.11.61-16.9-10.43-17.31-13.25z"/></g><path d="M829.75 520.87a289.39 289.39 0 0133.8 6.38" class="D E G H"/><path d="M880 534.72s-1.83 5.8.72 16.49l-15.88-.2c-1.94-10.49-.62-15.78-.62-15.78z" class="C"/><path d="M927.9 550.91l-8.56-8.32m2.45-5.43l8.04 7.84" class="D E G H"/><path d="M884.93 533.57c0 2.73-5.47 4.93-12.22 4.93s-12.21-2.2-12.21-4.93v-5.11h24.43z" class="B"/><g fill="#fff"><ellipse cx="872.71" cy="528.46" rx="12.22" ry="4.93"/><circle cx="881.27" cy="534.31" r=".92"/></g><path d="M880.86 527.9l-8.14.56-4.38-1.99" class="D E G H"/><path d="M903.33 549.18l1.35 1.83a37.4 37.4 0 01-6.58 1.49s4.21-.95 5.23-3.32z" class="B"/><path d="M915.47 550.47l-1.9-2.24" class="D E G H"/><path d="M916.78 581.55l30.15-89a4.48 4.48 0 014.25-3.05h134.25a4.49 4.49 0 014.26 5.93l-29.17 86.1z" fill="#d4d4d4"/><ellipse cx="1012.29" cy="532.07" rx="7.24" ry="6.65" class="F"/><g class="B"><path d="M1061.96 577.35l-143.63-.07-1.55 4.27h143.74l1.44-4.2z" opacity=".2"/><ellipse cx="836.63" cy="570.29" rx="25.08" ry="6.35" opacity=".3"/></g><path d="M822.42 564.37a10.7 10.7 0 110-21.4 2.19 2.19 0 110 4.37 6.33 6.33 0 000 12.65 2.19 2.19 0 110 4.38z" class="F"/><path d="M820.79 559.77a6.42 6.42 0 001.59.22 2.19 2.19 0 110 4.38 10.72 10.72 0 01-3.68-.66 3.24 3.24 0 001.38-1.41 4.19 4.19 0 00.68-1.93 2.7 2.7 0 000-.57" class="B"/><g class="F"><ellipse cx="840.95" cy="537.45" rx="18.26" ry="5.45"/><path d="M822.69 537.45v32.1c0 3 8.18 5.45 18.26 5.45s18.26-2.44 18.26-5.45v-32.1z"/></g><path d="M825.8 539.27c2.21 1.86 8.16 3.2 15.15 3.2s12.94-1.34 15.15-3.2c-2.21-1.86-8.16-3.19-15.15-3.19s-12.95 1.33-15.15 3.19z" class="B"/><ellipse cx="536.85" cy="891.45" rx="55.88" ry="14.57" class="I"/><path d="M534.65 886.48L498.07 881s13.73-3.79 35.67-4.16z" class="B"/><path d="M536.17 646.71s-29.42 27.27-17.51 33c10.18 4.87 17.51-33 17.51-33z" class="D K L M"/><path d="M537.05 886.9h-.41a4.68 4.68 0 01-4.68-4.68V637.91h9.74v244.31a4.68 4.68 0 01-4.65 4.68z" class="C"/><path d="M541.74 637.91v12.21s-2.74 6.59-9.75 8.29v-20.5z" class="B"/><circle cx="536.85" cy="633.88" r="9.55" class="C"/><path d="M1164 559.07c0 2.93-8.29 5.31-18.51 5.31S1127 562 1127 559.07v-3.65h37z" class="B"/><ellipse cx="1145.52" cy="555.42" rx="18.52" ry="5.31" class="C"/><path d="M846.78 649.11s-58.9 62.35-162.78 62.35c-105.07 0-145-62.46-145-62.46" class="D E K L M"/><rect x="839.21" y="649.67" width="9.16" height="5.48" rx="2.63" transform="rotate(135 843.79 652.407)" class="C"/><ellipse cx="848.98" cy="891.45" rx="55.88" ry="14.57" class="I"/><path d="M846.78 886.48l-36.51-5.56s13.57-3.75 35.63-4.07z" class="B"/><use xlink:href="#F" class="C"/><path d="M853.87 637.91v12.21s-2.73 6.59-9.75 8.29v-20.5z" class="B"/><circle cx="848.98" cy="633.88" r="9.55" class="C"/><ellipse cx="1473.24" cy="891.45" rx="55.88" ry="14.57" class="I"/><path d="M1471 886.48l-36.31-5.58s12.75-3.61 35.37-4.14z" class="B"/><path d="M1158.91 649.11s-51 62.35-160.93 61.13-149.68-61.13-149.68-61.13" class="D E K L M"/><rect x="1150.33" y="650.32" width="9.16" height="5.48" rx="2.63" transform="rotate(135 1154.918 653.058)" class="C"/><ellipse cx="1161.11" cy="891.45" rx="55.88" ry="14.57" class="I"/><path d="M1158.91 886.48l-36.54-5.55s14.31-3.69 35.67-4.22z" class="B"/><use xlink:href="#F" x="312.13" class="C"/><path d="M1166 637.91v12.21s-2.75 6.8-9.76 8.5l-.06-20.77zm-22.94-119.32h4.08a2.12 2.12 0 012.12 2.12v33.16a2.6 2.6 0 01-2.6 2.6h-3.12a2.6 2.6 0 01-2.6-2.6v-33.16a2.12 2.12 0 012.12-2.12z" class="B"/><path d="M1145 519.25l-.06-10.76s.24-10.34-6.48-17.84c-8.9-9.94-13.85-14.56-13.85-14.56" stroke-width="1.783" class="D E G H"/><g class="B"><rect x="1094.63" y="460.1" width="32.72" height="8.18" rx="3.87" transform="rotate(39.33 1111.095 464.283)"/><circle cx="1123.16" cy="474.85" r="2.05"/></g><circle cx="1161.11" cy="633.88" r="9.55" class="C"/><path d="M1471 646.83s-33 63.41-154.19 63.41c-105.07 0-152-57.89-154.11-61.71" class="D E K L M"/><g class="C"><rect x="1463.45" y="647.91" width="9.16" height="5.48" rx="2.63" transform="rotate(135 1468.032 650.654)"/><use xlink:href="#F" x="624.31"/></g><path d="M1478.13 637.91v12.21s-2.73 6.59-9.74 8.29v-20.5z" class="B"/><circle cx="1473.24" cy="633.88" r="9.55" class="C"/><path d="M1474.59 649.43s-1.09 17.1 8.42 23.62" class="D E K L M"/><path d="M1076.51 279.59l-8.84-15.31a7.18 7.18 0 00-12.44 0l-8.84 15.31a7.23 7.23 0 001.57 9.11 5.29 5.29 0 004.7 1.2l.36-.08a18.46 18.46 0 003.61-1.21l4.82-2.2 6.56 3a6.59 6.59 0 008-1.84c.1-.12.18-.24.27-.37a7.13 7.13 0 00.23-7.61zm-15 3.37s-2.15-1.38-2.15-2.56a2.15 2.15 0 014.29 0c-.04 1.18-2.18 2.6-2.18 2.6zm12.55 1.86c0 .11-.1.22-.16.33a3.63 3.63 0 01-4.7 1.43l-4.44-2.07a5.22 5.22 0 002-4.17 5.25 5.25 0 00-10.5.06 5.22 5.22 0 002 4.1l-4.47 2.08a3.61 3.61 0 01-4.69-1.43l-.17-.33a4.18 4.18 0 01.27-3.78l8.78-15.21a4.08 4.08 0 017.06 0l8.78 15.21a4.18 4.18 0 01.18 3.78z" class="F"/></svg>